<?xml version="1.0" encoding="UTF-8"?>
<svg version="1.1" xmlns="http://www.w3.org/2000/svg" width="512" height="512">
<path d="M0 0 C3.0570166 2.65477757 3.93274051 4.1910568 4.26928711 8.23876953 C3.97082535 12.4074929 2.96401603 15.2830564 1.31640625 19.1171875 C1.03003799 19.79401077 0.74366974 20.47083405 0.44862366 21.16816711 C-0.5021679 23.40875918 -1.47000302 25.64157693 -2.4375 27.875 C-3.11875553 29.47376716 -3.79857483 31.07314698 -4.47705078 32.6730957 C-5.91263253 36.05663625 -7.35347584 39.43786729 -8.79736328 42.81787109 C-12.02866882 50.39997698 -15.17276555 58.01814335 -18.32012939 65.63537598 C-20.10225507 69.9470003 -21.88932969 74.25657295 -23.67578125 78.56640625 C-24.21093353 79.85797134 -24.21093353 79.85797134 -24.75689697 81.17562866 C-27.6226841 88.09183284 -30.49302929 95.00613882 -33.36457825 101.91995239 C-35.13139652 106.1747619 -36.89643683 110.43029278 -38.6574707 114.6875 C-39.00268265 115.52201691 -39.34789459 116.35653381 -39.7035675 117.21633911 C-40.40080758 118.90191972 -41.09798173 120.5875276 -41.79508972 122.27316284 C-44.00466193 127.61097372 -46.23038615 132.94178595 -48.4657135 138.26885986 C-49.97678164 141.8745797 -51.47937656 145.48379371 -52.98043823 149.09368896 C-53.69500642 150.80658088 -54.41330052 152.51792379 -55.13552856 154.2276001 C-56.13266526 156.58920115 -57.11655926 158.95591835 -58.09765625 161.32421875 C-58.39361694 162.01604752 -58.68957764 162.70787628 -58.99450684 163.42066956 C-60.6356759 167.42680994 -61.48957764 170.67338201 -61 175 C-60.34 175.99 -59.68 176.98 -59 178 C-56.09110781 178.58594809 -56.09110781 178.58594809 -52.67796326 178.67565918 C-50.77804784 178.77215004 -50.77804784 178.77215004 -48.83975029 178.87059021 C-43.27570912 179.05811319 -37.71972141 179.16823435 -32.15258789 179.18945312 C-30.95188156 179.19774643 -29.75117523 179.20603973 -28.51408386 179.21458435 C-25.26087711 179.23632055 -22.00767735 179.25413852 -18.75443959 179.27039146 C-15.30163553 179.28884441 -11.84887315 179.31318324 -8.39610291 179.33703613 C-0.35872225 179.39167208 7.6786899 179.43989421 15.71611786 179.48697662 C25.88291356 179.54658186 36.04969094 179.60784846 46.21642309 179.67754889 C50.92135838 179.70953008 55.62630224 179.7353724 60.33128357 179.7598877 C67.88812505 179.80498679 75.44387436 179.88699903 83 180 C83.69720232 180.00995625 84.39440465 180.01991249 85.11273432 180.03017044 C89.45368291 180.09399803 93.79369261 180.17639703 98.13382638 180.28218937 C99.51393311 180.31385576 100.89416144 180.34063781 102.27446163 180.36228848 C104.18301674 180.39355423 106.09120168 180.44538206 107.99928284 180.49816895 C109.08795434 180.52256294 110.17662584 180.54695694 111.29828739 180.57209015 C114.31442064 181.04979941 115.20383593 181.58944086 117 184 C118.54474111 187.08948222 118.27063012 189.59006051 118 193 C116.48828125 195.59765625 116.48828125 195.59765625 114.3125 198.0625 C113.49652344 198.99835938 112.68054688 199.93421875 111.83984375 200.8984375 C110.89626545 201.93506357 109.9494612 202.96875947 109 204 C108.21326904 204.85899902 108.21326904 204.85899902 107.41064453 205.73535156 C104.6258455 208.76719583 101.82192383 211.78027652 99.00390625 214.78125 C96.17628991 217.79783854 93.43947977 220.88154577 90.73828125 224.01171875 C88.52743511 226.54052928 86.26403557 229.01872564 84 231.5 C80.54424587 235.28934126 77.1347711 239.11083698 73.76953125 242.98046875 C69.46130252 247.89736556 65.05313844 252.72639032 60.671875 257.578125 C57.25694362 261.36474959 53.85013474 265.15583617 50.5 269 C45.62856797 274.58979989 40.6410485 280.07534898 35.671875 285.578125 C32.25694362 289.36474959 28.85013474 293.15583617 25.5 297 C20.62856797 302.58979989 15.6410485 308.07534898 10.671875 313.578125 C7.25694362 317.36474959 3.85013474 321.15583617 0.5 325 C-4.37143203 330.58979989 -9.3589515 336.07534898 -14.328125 341.578125 C-17.74305638 345.36474959 -21.14986526 349.15583617 -24.5 353 C-29.37143203 358.58979989 -34.3589515 364.07534898 -39.328125 369.578125 C-42.72344938 373.3430085 -46.11058342 377.11193551 -49.4375 380.9375 C-53.08937053 385.13164365 -56.84266184 389.23094292 -60.58984375 393.33984375 C-63.17238884 396.19027034 -65.70655103 399.07825892 -68.23046875 401.98046875 C-72.53869748 406.89736556 -76.94686156 411.72639032 -81.328125 416.578125 C-84.74305638 420.36474959 -88.14986526 424.15583617 -91.5 428 C-96.37143203 433.58979989 -101.3589515 439.07534898 -106.328125 444.578125 C-109.84120243 448.47357821 -113.34724969 452.37437971 -116.8125 456.3125 C-117.37453125 456.95058594 -117.9365625 457.58867187 -118.515625 458.24609375 C-119.77139017 459.72987944 -120.92941253 461.29554474 -122.0625 462.875 C-124.46589636 465.51098311 -126.58324426 466.14581107 -130 467 C-134.75848203 463.31217643 -134.75848203 463.31217643 -135.36402893 460.0222168 C-135.37828703 454.17078833 -134.16219065 449.96632981 -131.58984375 444.75 C-131.23123764 443.98713684 -130.87263153 443.22427368 -130.50315857 442.43829346 C-129.3300939 439.95117974 -128.13378376 437.47601675 -126.9375 435 C-126.10892133 433.25188462 -125.28228643 431.5028467 -124.45751953 429.75292969 C-122.78014799 426.19622638 -121.09582427 422.6429505 -119.40673828 419.09179688 C-116.28608092 412.51206969 -113.27329051 405.88485041 -110.27709961 399.2477417 C-108.76075472 395.88972516 -107.23753332 392.5348306 -105.71484375 389.1796875 C-105.41274994 388.51365509 -105.11065613 387.84762268 -104.79940796 387.16140747 C-100.86414222 378.48932263 -96.89435369 369.83300918 -92.92987061 361.17425537 C-87.78670713 349.93832017 -82.69013338 338.68206179 -77.61724854 327.41424561 C-73.94846623 319.268314 -70.2476288 311.14035191 -66.39453125 303.07958984 C-64.1742126 298.42951275 -62.14495016 293.71246083 -60.14135742 288.96582031 C-59.2453918 286.84990478 -58.34194004 284.73730512 -57.4375 282.625 C-57.13392578 281.90183594 -56.83035156 281.17867188 -56.51757812 280.43359375 C-54.22680066 275.11340033 -54.22680066 275.11340033 -52 274 C-51.63678515 272.33958925 -51.31323028 270.67056149 -51 269 C-50.44466623 267.49733215 -49.8815591 265.99752395 -49.3125 264.5 C-48.24137818 261.3802277 -47.93171865 260.29795498 -48.6875 257 C-49.84786296 254.86672795 -49.84786296 254.86672795 -52 254 C-54.1678048 253.90001 -56.33876056 253.8665314 -58.50886536 253.86196899 C-59.18491607 253.85914771 -59.86096678 253.85632643 -60.55750388 253.85341966 C-62.83367616 253.84505491 -65.10979992 253.84373381 -67.38598633 253.84228516 C-69.01361733 253.8376183 -70.64124702 253.83247495 -72.26887512 253.82688904 C-75.77963451 253.81559673 -79.29038534 253.80716802 -82.801157 253.80076981 C-88.3517385 253.79010401 -93.90225875 253.76986295 -99.45280457 253.74765015 C-115.23844599 253.68567819 -131.0240841 253.63170544 -146.80981445 253.59863281 C-155.52374467 253.58029591 -164.2375726 253.55137141 -172.95142764 253.5106281 C-177.56429686 253.48954188 -182.17703708 253.47409856 -186.78995705 253.47182083 C-191.12955772 253.4696756 -195.46888983 253.45381912 -199.80840874 253.42743111 C-201.40111435 253.42023178 -202.99385247 253.41814022 -204.58657074 253.42153358 C-206.7614267 253.42542702 -208.93542442 253.41097909 -211.11018372 253.39199829 C-212.3271182 253.38868814 -213.54405268 253.385378 -214.79786396 253.38196754 C-218.96484848 252.88490782 -221.71039997 251.51387829 -224.4375 248.3125 C-225.3247569 244.66488829 -224.58008164 241.32746604 -223 238 C-221.38528945 236.28294864 -219.70931949 234.62289323 -218 233 C-215.99319964 230.92151601 -214.02681494 228.80611158 -212.0625 226.6875 C-211.53325928 226.11717041 -211.00401855 225.54684082 -210.45874023 224.95922852 C-207.11744904 221.320224 -204.09406475 217.57901932 -201.21875 213.55859375 C-199.45842114 211.30740396 -197.24638328 209.75327475 -195 208 C-193.2623208 206.13538706 -191.60944399 204.21061058 -189.953125 202.2734375 C-187.83965499 199.81335841 -185.67573008 197.40514379 -183.5 195 C-180.75780378 191.964993 -178.04676542 188.90959131 -175.375 185.8125 C-173.16814188 183.27512165 -170.89632761 180.8590514 -168.5 178.5 C-165.53023979 175.57613012 -162.79493621 172.51418446 -160.07421875 169.359375 C-157.47370905 166.40135643 -154.80268981 163.51307375 -152.125 160.625 C-147.80235068 155.96073704 -143.52183243 151.26305715 -139.27734375 146.52734375 C-136.70190225 143.66917797 -134.10314236 140.83289739 -131.5 138 C-128.14706883 134.35072829 -124.81001643 130.68830402 -121.5 127 C-117.72462783 122.79315673 -113.91019552 118.62325147 -110.0859375 114.4609375 C-107.20577393 111.32332914 -104.34468386 108.16979059 -101.5 105 C-97.72462783 100.79315673 -93.91019552 96.62325147 -90.0859375 92.4609375 C-86.4704985 88.52233077 -82.89081908 84.55312292 -79.32421875 80.5703125 C-77.63089337 78.69769385 -75.92728164 76.83971178 -74.20703125 74.9921875 C-69.60340982 70.03898293 -65.20891584 65.09245279 -61.25390625 59.59375 C-59.47475575 57.33239984 -57.26235097 55.76573734 -55 54 C-50.30194504 49.07051376 -46.13425992 43.69360006 -41.9921875 38.296875 C-39.86133631 35.84012892 -37.55623989 34.00124011 -35 32 C-33.85935853 30.82603642 -32.75296071 29.61759686 -31.6875 28.375 C-30.79998047 27.34246094 -30.79998047 27.34246094 -29.89453125 26.2890625 C-27.18590584 23.01637282 -24.57861646 19.6667451 -21.9921875 16.296875 C-19.86611725 13.84564107 -17.53632729 12.01243018 -15 10 C-14.34 9.01 -13.68 8.02 -13 7 C-9.58472189 1.87708283 -6.40926716 -1.22730648 0 0 Z " fill="#FDD835" transform="translate(309,23)"/>
<path d="M0 0 C3.0570166 2.65477757 3.93274051 4.1910568 4.26928711 8.23876953 C3.97082535 12.4074929 2.96401603 15.2830564 1.31640625 19.1171875 C1.03003799 19.79401077 0.74366974 20.47083405 0.44862366 21.16816711 C-0.5021679 23.40875918 -1.47000302 25.64157693 -2.4375 27.875 C-3.11875553 29.47376716 -3.79857483 31.07314698 -4.47705078 32.6730957 C-5.91263253 36.05663625 -7.35347584 39.43786729 -8.79736328 42.81787109 C-12.02866882 50.39997698 -15.17276555 58.01814335 -18.32012939 65.63537598 C-20.10225507 69.9470003 -21.88932969 74.25657295 -23.67578125 78.56640625 C-24.21093353 79.85797134 -24.21093353 79.85797134 -24.75689697 81.17562866 C-27.6226841 88.09183284 -30.49302929 95.00613882 -33.36457825 101.91995239 C-35.13139652 106.1747619 -36.89643683 110.43029278 -38.6574707 114.6875 C-39.00268265 115.52201691 -39.34789459 116.35653381 -39.7035675 117.21633911 C-40.40080758 118.90191972 -41.09798173 120.5875276 -41.79508972 122.27316284 C-44.00466193 127.61097372 -46.23038615 132.94178595 -48.4657135 138.26885986 C-49.97678164 141.8745797 -51.47937656 145.48379371 -52.98043823 149.09368896 C-53.69500642 150.80658088 -54.41330052 152.51792379 -55.13552856 154.2276001 C-56.13266526 156.58920115 -57.11655926 158.95591835 -58.09765625 161.32421875 C-58.39361694 162.01604752 -58.68957764 162.70787628 -58.99450684 163.42066956 C-60.6356759 167.42680994 -61.48957764 170.67338201 -61 175 C-60.34 175.99 -59.68 176.98 -59 178 C-56.09110781 178.58594809 -56.09110781 178.58594809 -52.67796326 178.67565918 C-50.77804784 178.77215004 -50.77804784 178.77215004 -48.83975029 178.87059021 C-43.27570912 179.05811319 -37.71972141 179.16823435 -32.15258789 179.18945312 C-30.95188156 179.19774643 -29.75117523 179.20603973 -28.51408386 179.21458435 C-25.26087711 179.23632055 -22.00767735 179.25413852 -18.75443959 179.27039146 C-15.30163553 179.28884441 -11.84887315 179.31318324 -8.39610291 179.33703613 C-0.35872225 179.39167208 7.6786899 179.43989421 15.71611786 179.48697662 C25.88291356 179.54658186 36.04969094 179.60784846 46.21642309 179.67754889 C50.92135838 179.70953008 55.62630224 179.7353724 60.33128357 179.7598877 C67.88812505 179.80498679 75.44387436 179.88699903 83 180 C83.69720232 180.00995625 84.39440465 180.01991249 85.11273432 180.03017044 C89.45368291 180.09399803 93.79369261 180.17639703 98.13382638 180.28218937 C99.51393311 180.31385576 100.89416144 180.34063781 102.27446163 180.36228848 C104.18301674 180.39355423 106.09120168 180.44538206 107.99928284 180.49816895 C109.08795434 180.52256294 110.17662584 180.54695694 111.29828739 180.57209015 C114.31442064 181.04979941 115.20383593 181.58944086 117 184 C118.54474111 187.08948222 118.27063012 189.59006051 118 193 C116.48828125 195.59765625 116.48828125 195.59765625 114.3125 198.0625 C113.49652344 198.99835938 112.68054688 199.93421875 111.83984375 200.8984375 C110.89626545 201.93506357 109.9494612 202.96875947 109 204 C108.21326904 204.85899902 108.21326904 204.85899902 107.41064453 205.73535156 C104.6258455 208.76719583 101.82192383 211.78027652 99.00390625 214.78125 C96.17628991 217.79783854 93.43947977 220.88154577 90.73828125 224.01171875 C88.52743511 226.54052928 86.26403557 229.01872564 84 231.5 C80.54424587 235.28934126 77.1347711 239.11083698 73.76953125 242.98046875 C69.46130252 247.89736556 65.05313844 252.72639032 60.671875 257.578125 C57.25694362 261.36474959 53.85013474 265.15583617 50.5 269 C45.62856797 274.58979989 40.6410485 280.07534898 35.671875 285.578125 C32.25694362 289.36474959 28.85013474 293.15583617 25.5 297 C20.62856797 302.58979989 15.6410485 308.07534898 10.671875 313.578125 C7.25694362 317.36474959 3.85013474 321.15583617 0.5 325 C-4.37143203 330.58979989 -9.3589515 336.07534898 -14.328125 341.578125 C-17.74305638 345.36474959 -21.14986526 349.15583617 -24.5 353 C-29.37143203 358.58979989 -34.3589515 364.07534898 -39.328125 369.578125 C-42.72344938 373.3430085 -46.11058342 377.11193551 -49.4375 380.9375 C-53.08937053 385.13164365 -56.84266184 389.23094292 -60.58984375 393.33984375 C-63.17238884 396.19027034 -65.70655103 399.07825892 -68.23046875 401.98046875 C-72.53869748 406.89736556 -76.94686156 411.72639032 -81.328125 416.578125 C-84.74305638 420.36474959 -88.14986526 424.15583617 -91.5 428 C-96.37143203 433.58979989 -101.3589515 439.07534898 -106.328125 444.578125 C-109.84120243 448.47357821 -113.34724969 452.37437971 -116.8125 456.3125 C-117.37453125 456.95058594 -117.9365625 457.58867187 -118.515625 458.24609375 C-119.77139017 459.72987944 -120.92941253 461.29554474 -122.0625 462.875 C-124.46589636 465.51098311 -126.58324426 466.14581107 -130 467 C-134.75848203 463.31217643 -134.75848203 463.31217643 -135.36402893 460.0222168 C-135.37828703 454.17078833 -134.16219065 449.96632981 -131.58984375 444.75 C-131.23123764 443.98713684 -130.87263153 443.22427368 -130.50315857 442.43829346 C-129.3300939 439.95117974 -128.13378376 437.47601675 -126.9375 435 C-126.10892133 433.25188462 -125.28228643 431.5028467 -124.45751953 429.75292969 C-122.78014799 426.19622638 -121.09582427 422.6429505 -119.40673828 419.09179688 C-116.28608092 412.51206969 -113.27329051 405.88485041 -110.27709961 399.2477417 C-108.76075472 395.88972516 -107.23753332 392.5348306 -105.71484375 389.1796875 C-105.41274994 388.51365509 -105.11065613 387.84762268 -104.79940796 387.16140747 C-100.86414222 378.48932263 -96.89435369 369.83300918 -92.92987061 361.17425537 C-87.78670713 349.93832017 -82.69013338 338.68206179 -77.61724854 327.41424561 C-73.94846623 319.268314 -70.2476288 311.14035191 -66.39453125 303.07958984 C-64.1742126 298.42951275 -62.14495016 293.71246083 -60.14135742 288.96582031 C-59.2453918 286.84990478 -58.34194004 284.73730512 -57.4375 282.625 C-57.13392578 281.90183594 -56.83035156 281.17867188 -56.51757812 280.43359375 C-54.22680066 275.11340033 -54.22680066 275.11340033 -52 274 C-51.63678515 272.33958925 -51.31323028 270.67056149 -51 269 C-50.44466623 267.49733215 -49.8815591 265.99752395 -49.3125 264.5 C-48.24137818 261.3802277 -47.93171865 260.29795498 -48.6875 257 C-49.84786296 254.86672795 -49.84786296 254.86672795 -52 254 C-54.1678048 253.90001 -56.33876056 253.8665314 -58.50886536 253.86196899 C-59.18491607 253.85914771 -59.86096678 253.85632643 -60.55750388 253.85341966 C-62.83367616 253.84505491 -65.10979992 253.84373381 -67.38598633 253.84228516 C-69.01361733 253.8376183 -70.64124702 253.83247495 -72.26887512 253.82688904 C-75.77963451 253.81559673 -79.29038534 253.80716802 -82.801157 253.80076981 C-88.3517385 253.79010401 -93.90225875 253.76986295 -99.45280457 253.74765015 C-115.23844599 253.68567819 -131.0240841 253.63170544 -146.80981445 253.59863281 C-155.52374467 253.58029591 -164.2375726 253.55137141 -172.95142764 253.5106281 C-177.56429686 253.48954188 -182.17703708 253.47409856 -186.78995705 253.47182083 C-191.12955772 253.4696756 -195.46888983 253.45381912 -199.80840874 253.42743111 C-201.40111435 253.42023178 -202.99385247 253.41814022 -204.58657074 253.42153358 C-206.7614267 253.42542702 -208.93542442 253.41097909 -211.11018372 253.39199829 C-212.3271182 253.38868814 -213.54405268 253.385378 -214.79786396 253.38196754 C-218.96484848 252.88490782 -221.71039997 251.51387829 -224.4375 248.3125 C-225.3247569 244.66488829 -224.58008164 241.32746604 -223 238 C-221.38528945 236.28294864 -219.70931949 234.62289323 -218 233 C-215.99319964 230.92151601 -214.02681494 228.80611158 -212.0625 226.6875 C-211.53325928 226.11717041 -211.00401855 225.54684082 -210.45874023 224.95922852 C-207.11744904 221.320224 -204.09406475 217.57901932 -201.21875 213.55859375 C-199.45842114 211.30740396 -197.24638328 209.75327475 -195 208 C-193.2623208 206.13538706 -191.60944399 204.21061058 -189.953125 202.2734375 C-187.83965499 199.81335841 -185.67573008 197.40514379 -183.5 195 C-180.75780378 191.964993 -178.04676542 188.90959131 -175.375 185.8125 C-173.16814188 183.27512165 -170.89632761 180.8590514 -168.5 178.5 C-165.53023979 175.57613012 -162.79493621 172.51418446 -160.07421875 169.359375 C-157.47370905 166.40135643 -154.80268981 163.51307375 -152.125 160.625 C-147.80235068 155.96073704 -143.52183243 151.26305715 -139.27734375 146.52734375 C-136.70190225 143.66917797 -134.10314236 140.83289739 -131.5 138 C-128.14706883 134.35072829 -124.81001643 130.68830402 -121.5 127 C-117.72462783 122.79315673 -113.91019552 118.62325147 -110.0859375 114.4609375 C-107.20577393 111.32332914 -104.34468386 108.16979059 -101.5 105 C-97.72462783 100.79315673 -93.91019552 96.62325147 -90.0859375 92.4609375 C-86.4704985 88.52233077 -82.89081908 84.55312292 -79.32421875 80.5703125 C-77.63089337 78.69769385 -75.92728164 76.83971178 -74.20703125 74.9921875 C-69.60340982 70.03898293 -65.20891584 65.09245279 -61.25390625 59.59375 C-59.47475575 57.33239984 -57.26235097 55.76573734 -55 54 C-50.30194504 49.07051376 -46.13425992 43.69360006 -41.9921875 38.296875 C-39.86133631 35.84012892 -37.55623989 34.00124011 -35 32 C-33.85935853 30.82603642 -32.75296071 29.61759686 -31.6875 28.375 C-30.79998047 27.34246094 -30.79998047 27.34246094 -29.89453125 26.2890625 C-27.18590584 23.01637282 -24.57861646 19.6667451 -21.9921875 16.296875 C-19.86611725 13.84564107 -17.53632729 12.01243018 -15 10 C-14.34 9.01 -13.68 8.02 -13 7 C-9.58472189 1.87708283 -6.40926716 -1.22730648 0 0 Z M-19 32 C-21.35648224 34.49782573 -23.70974016 36.99866815 -26.0625 39.5 C-26.71927734 40.19609375 -27.37605469 40.8921875 -28.05273438 41.609375 C-31.90597833 45.70937841 -35.66571494 49.87154503 -39.35424805 54.12011719 C-41.80733973 56.92219492 -44.33744407 59.64957185 -46.875 62.375 C-51.1986416 67.03833223 -55.47818453 71.73696176 -59.72265625 76.47265625 C-62.29809775 79.33082203 -64.89685764 82.16710261 -67.5 85 C-70.85293117 88.64927171 -74.18998357 92.31169598 -77.5 96 C-81.27537217 100.20684327 -85.08980448 104.37674853 -88.9140625 108.5390625 C-91.79422607 111.67667086 -94.65531614 114.83020941 -97.5 118 C-101.27537217 122.20684327 -105.08980448 126.37674853 -108.9140625 130.5390625 C-111.79422607 133.67667086 -114.65531614 136.83020941 -117.5 140 C-121.27537217 144.20684327 -125.08980448 148.37674853 -128.9140625 152.5390625 C-131.79422607 155.67667086 -134.65531614 158.83020941 -137.5 162 C-141.27537217 166.20684327 -145.08980448 170.37674853 -148.9140625 174.5390625 C-152.53007657 178.47829571 -156.10897759 182.4494338 -159.6796875 186.4296875 C-162.31079783 189.34428447 -164.96652475 192.23539224 -167.625 195.125 C-170.6022264 198.36213091 -173.55952966 201.61137856 -176.4375 204.9375 C-180.0166732 209.06599474 -183.73321756 213.06278041 -187.44580078 217.07080078 C-192.01258696 222.00396028 -196.5274231 226.98115417 -201 232 C-202.04414063 233.16789062 -202.04414063 233.16789062 -203.109375 234.359375 C-203.75390625 235.08640625 -204.3984375 235.8134375 -205.0625 236.5625 C-205.63097656 237.20316406 -206.19945312 237.84382812 -206.78515625 238.50390625 C-208.10506061 239.80818151 -208.10506061 239.80818151 -208 241 C-207.18793091 241.00054477 -206.37586182 241.00108953 -205.53918457 241.00165081 C-185.76647947 241.01662757 -165.99399961 241.05911063 -146.22142029 241.13209057 C-136.65946917 241.16672228 -127.09766193 241.19209371 -117.53564453 241.19555664 C-109.1999605 241.19859906 -100.86453286 241.21912693 -92.52894783 241.26052457 C-88.11652515 241.28183106 -83.70446674 241.29446733 -79.29199219 241.28615379 C-75.13526772 241.27859867 -70.97928044 241.2944951 -66.82269096 241.32806015 C-65.30059417 241.33627592 -63.77842383 241.33606397 -62.2563343 241.32659721 C-47.04007575 241.24135922 -47.04007575 241.24135922 -41 247 C-36.40850658 252.88653002 -35.2970516 257.71409461 -36 265 C-36.79319418 267.98681594 -38.01477097 270.70028607 -39.3125 273.5 C-39.69712402 274.36399414 -40.08174805 275.22798828 -40.47802734 276.11816406 C-41.96188625 279.42309748 -43.47910646 282.71201951 -45 286 C-45.68324848 287.48235597 -46.36634487 288.96478204 -47.04931641 290.44726562 C-50.65026588 298.2570074 -54.26723513 306.0592133 -57.89630127 313.85592651 C-62.54306707 323.84007151 -67.14229547 333.84423546 -71.6875 343.875 C-71.98729767 344.53647034 -72.28709534 345.19794067 -72.59597778 345.87945557 C-73.20138397 347.21525921 -73.80678659 348.55106447 -74.41218567 349.88687134 C-74.71186752 350.54811005 -75.01154938 351.20934875 -75.3203125 351.890625 C-75.61922897 352.55033295 -75.91814545 353.21004089 -76.22612 353.88973999 C-79.48202888 361.07125877 -82.76567458 368.24003892 -86.04852295 375.40927124 C-88.04093866 379.76307075 -90.02837162 384.11914796 -92.01644897 388.47492981 C-94.0444296 392.91568531 -96.08170483 397.35205485 -98.12477112 401.78588867 C-99.45910853 404.68547044 -100.78703418 407.58795766 -102.11349487 410.4911499 C-102.74228478 411.86358088 -103.37386461 413.23473733 -104.0083313 414.60455322 C-104.87867162 416.48445584 -105.73928301 418.36851622 -106.59765625 420.25390625 C-107.08758057 421.31939697 -107.57750488 422.3848877 -108.08227539 423.48266602 C-108.38512451 424.31338623 -108.68797363 425.14410645 -109 426 C-108.67 426.66 -108.34 427.32 -108 428 C-98.70156859 418.07511958 -98.70156859 418.07511958 -89.6640625 407.9140625 C-85.40767677 403.01821976 -81.01961553 398.23648699 -76.671875 393.421875 C-73.25694362 389.63525041 -69.85013474 385.84416383 -66.5 382 C-62.38917573 377.28297123 -58.1925774 372.64430291 -54 368 C-52.49971321 366.33359149 -50.99971128 364.66692647 -49.5 363 C-47.2282871 360.47499507 -44.95564586 357.95086696 -42.6796875 355.4296875 C-39.28127068 351.66262885 -35.8918339 347.89084414 -32.5625 344.0625 C-28.90942044 339.86696779 -25.15494451 335.76626447 -21.40625 331.65625 C-19.41351047 329.45647259 -17.4466186 327.24044782 -15.5 325 C-12.71185902 321.79100756 -9.86471815 318.64083556 -7 315.5 C-3.54424587 311.71065874 -0.1347711 307.88916302 3.23046875 304.01953125 C7.53869748 299.10263444 11.94686156 294.27360968 16.328125 289.421875 C19.74305638 285.63525041 23.14986526 281.84416383 26.5 278 C31.37143203 272.41020011 36.3589515 266.92465102 41.328125 261.421875 C44.74305638 257.63525041 48.14986526 253.84416383 51.5 250 C56.37143203 244.41020011 61.3589515 238.92465102 66.328125 233.421875 C69.72344938 229.6569915 73.11058342 225.88806449 76.4375 222.0625 C79.24822525 218.83440488 82.115799 215.66261557 85 212.5 C89.45475819 207.60931043 89.45475819 207.60931043 93.875 202.6875 C94.38804687 202.11386719 94.90109375 201.54023438 95.4296875 200.94921875 C97.47006509 198.41651125 99.20783721 195.71217036 101 193 C83.46850623 192.12206751 65.96475144 191.86358916 48.41462517 191.86190033 C43.97873801 191.86073265 39.5429289 191.84771042 35.10707092 191.83233643 C33.97162532 191.82847715 33.97162532 191.82847715 32.81324142 191.8245399 C31.26956614 191.81927751 29.72589094 191.81399204 28.18221581 191.80868387 C17.90002559 191.77384891 7.61794813 191.74704383 -2.66430664 191.74951172 C-9.66818474 191.75110204 -16.67178089 191.73505719 -23.67556852 191.69880509 C-27.36107266 191.68043547 -31.04610585 191.67092682 -34.73164558 191.68328094 C-38.82287337 191.69687572 -42.91299716 191.67176358 -47.00415039 191.64355469 C-48.2078125 191.65375137 -49.41147461 191.66394806 -50.65161133 191.67445374 C-57.64984314 191.58789877 -62.67953231 190.7823894 -68 186 C-73.03924268 179.53943246 -73.82078698 173.99320241 -73 166 C-71.82309829 161.79069535 -70.13519226 157.87050997 -68.375 153.875 C-67.61869399 152.09017714 -66.86239461 150.30535146 -66.10635376 148.52041626 C-65.30084257 146.62887546 -64.48589654 144.74167103 -63.66796875 142.85546875 C-62.00825776 139.02678418 -60.37590518 135.18689241 -58.75 131.34375 C-58.19414417 130.03057679 -57.63823536 128.717426 -57.08227539 127.40429688 C-56.80239777 126.74324951 -56.52252014 126.08220215 -56.23416138 125.40112305 C-55.36459471 123.35046166 -54.49215824 121.30104348 -53.61889648 119.25195312 C-48.08537891 106.26074741 -42.67568481 93.21913058 -37.28710938 80.16723633 C-33.89413957 71.95328321 -30.48172105 63.74934374 -26.99609375 55.57421875 C-26.37632468 54.11607316 -25.75661275 52.65790328 -25.13696289 51.19970703 C-23.98955475 48.50039036 -22.83237727 45.80555207 -21.66967773 43.11279297 C-21.16766846 41.93217285 -20.66565918 40.75155273 -20.1484375 39.53515625 C-19.70677246 38.507854 -19.26510742 37.48055176 -18.81005859 36.42211914 C-18.54273926 35.62281982 -18.27541992 34.82352051 -18 34 C-18.33 33.34 -18.66 32.68 -19 32 Z " fill="#D8BA36" transform="translate(309,23)"/>
<path d="M0 0 C0.33 0.66 0.66 1.32 1 2 C0.0625 4.625 0.0625 4.625 -1 7 C-1.99 7 -2.98 7 -4 7 C-4 4 -4 4 -2 1.8125 C-1.34 1.214375 -0.68 0.61625 0 0 Z " fill="#F3DF3A" transform="translate(290,55)"/>
</svg>
